HIERARCHY
ROOT root
{
	OFFSET	0	13.1	24.9
	CHANNELS 6  Xposition Yposition Zposition Xrotation Yrotation Zrotation
	JOINT spine_1
	{
		OFFSET	0	9.99999	0
		CHANNELS 3  Xrotation Yrotation Zrotation
		JOINT spine_2
		{
			OFFSET	0	112	-10
			CHANNELS 3  Xrotation Yrotation Zrotation
			JOINT spine_3
			{
				OFFSET	0	206.5	19.3
				CHANNELS 3  Xrotation Yrotation Zrotation
				JOINT spine_4
				{
					OFFSET	0	110.4	14.6
					CHANNELS 3  Xrotation Yrotation Zrotation
					JOINT neck_1
					{
						OFFSET	0	71.8	-50.3
						CHANNELS 3  Xrotation Yrotation Zrotation
						JOINT neck_2
						{
							OFFSET	0	86.2	-25.8
							CHANNELS 3  Xrotation Yrotation Zrotation
							JOINT head_ee
							{
								OFFSET	0	179.8	-8.7
								CHANNELS 3  Xrotation Yrotation Zrotation
								End Site
								{
									OFFSET	1	0	0
								}
							}
						}
					}
					JOINT left_clavicle
					{
						OFFSET	-43.2	22.4	-70.8
						CHANNELS 3  Xrotation Yrotation Zrotation
						JOINT left_shoulder
						{
							OFFSET	-93.9	-5.79999	48.7
							CHANNELS 3  Xrotation Yrotation Zrotation
							JOINT left_elbow
							{
								OFFSET	-291.4	-30.8	15.2
								CHANNELS 3  Xrotation Yrotation Zrotation
								JOINT left_lowarm_twist
								{
									OFFSET	-110.7	-3.89999	13.6
									CHANNELS 3  Xrotation Yrotation Zrotation
									JOINT left_hand
									{
										OFFSET	-110.7	-3.89999	13.6
										CHANNELS 3  Xrotation Yrotation Zrotation
										JOINT left_ee
										{
											OFFSET	-80.8	-5.10001	12.1
											CHANNELS 3  Xrotation Yrotation Zrotation
											End Site
											{
												OFFSET	1	0	0
											}
										}
									}
								}
							}
						}
					}
					JOINT right_clavicle
					{
						OFFSET	43.2	22.4	-70.8
						CHANNELS 3  Xrotation Yrotation Zrotation
						JOINT right_shoulder
						{
							OFFSET	93.9	-5.79999	48.7
							CHANNELS 3  Xrotation Yrotation Zrotation
							JOINT right_elbow
							{
								OFFSET	291.4	-30.8	15.2
								CHANNELS 3  Xrotation Yrotation Zrotation
								JOINT right_lowarm_twist
								{
									OFFSET	110.7	-3.89999	13.6
									CHANNELS 3  Xrotation Yrotation Zrotation
									JOINT right_hand
									{
										OFFSET	110.7	-3.89999	13.6
										CHANNELS 3  Xrotation Yrotation Zrotation
										JOINT right_ee
										{
											OFFSET	80.8	-5.10001	12.1
											CHANNELS 3  Xrotation Yrotation Zrotation
											End Site
											{
												OFFSET	1	0	0
											}
										}
									}
								}
							}
						}
					}
				}
			}
		}
	}
	JOINT left_hip
	{
		OFFSET	-82.8	-127.5	0.300001
		CHANNELS 3  Xrotation Yrotation Zrotation
		JOINT left_knee
		{
			OFFSET	-28.2	-396.7	2.2
			CHANNELS 3  Xrotation Yrotation Zrotation
			JOINT left_ankle
			{
				OFFSET	-11.7	-411.3	35.4
				CHANNELS 3  Xrotation Yrotation Zrotation
				JOINT left_toes
				{
					OFFSET	0	-60	-88.6
					CHANNELS 3  Xrotation Yrotation Zrotation
					JOINT left_foot_ee
					{
						OFFSET	-22.5	-16.5	-42.2
						CHANNELS 3  Xrotation Yrotation Zrotation
						End Site
						{
							OFFSET	1	0	0
						}
					}
				}
			}
		}
	}
	JOINT right_hip
	{
		OFFSET	82.8	-127.5	0.300001
		CHANNELS 3  Xrotation Yrotation Zrotation
		JOINT right_knee
		{
			OFFSET	28.2	-396.7	2.2
			CHANNELS 3  Xrotation Yrotation Zrotation
			JOINT right_ankle
			{
				OFFSET	11.7	-411.3	35.4
				CHANNELS 3  Xrotation Yrotation Zrotation
				JOINT right_toes
				{
					OFFSET	0	-60	-88.6
					CHANNELS 3  Xrotation Yrotation Zrotation
					JOINT right_foot_ee
					{
						OFFSET	22.5	-16.5	-42.2
						CHANNELS 3  Xrotation Yrotation Zrotation
						End Site
						{
							OFFSET	1	0	0
						}
					}
				}
			}
		}
	}
}
MOTION
Frames: 7
Frame Time: 0.02
1220.31982996 746.005 -1713.95813382 -14.2228166698 35.0958485208 11.3792331621 1.70559 0.0981351 -0.20847 1.70561 0.111202 -0.201803 1.70521 0.14589 -0.178343 1.70518 0.115893 -0.199146 3.26322 9.57736 -1.39508 3.6291 17.861 -0.962667 -0.0 0.0 -0.0 1.01056 9.59908 2.88766 -17.5612 -21.0447 70.947 1.01371 -26.6634 0.240228 39.8059 -0.339205 -4.97276 -3.10799 17.8709 -11.655 -0.0 0.0 -0.0 7.11814 -0.137573 -13.8263 -1.60418 48.0726 -59.096 0.928847 24.7079 -0.203442 -5.09482 0.207131 -0.617235 2.65185 -28.9846 -26.6726 0.0 0.0 0.0 42.3784 -4.10721 -10.4373 -59.0944 -2.10299 8.42492 10.4245 23.7306 -1.53811 -28.7284 0.0 0.0 -0.0 0.0 -0.0 28.4827 15.3781 -10.8429 -15.7985 -0.322008 -2.39539 39.2948 -0.764795 4.8096 -35.3926 0.0 0.0 0.0 0.0 0.0 
1200.0853242 745.325 -1720.50138278 -13.8150773705 33.5861134488 10.0293420128 1.68902 0.0816865 -0.209267 1.68904 0.0948371 -0.203645 1.6887 0.130182 -0.183079 1.68867 0.0996343 -0.201341 1.41272 10.2539 -0.807935 1.73666 18.7778 -0.0188606 -0.0 0.0 -0.0 1.11602 10.8828 3.18744 -17.4434 -18.8627 72.9042 0.855526 -22.9671 0.173806 39.6488 -0.331122 -4.95437 -3.9303 23.8295 -13.1107 -0.0 0.0 -0.0 7.98866 0.561939 -15.5725 -2.99078 46.1309 -54.5529 1.30036 32.7865 -0.382565 -5.13027 0.208764 -0.621463 2.34823 -27.2059 -24.4417 0.0 0.0 0.0 42.1369 -4.17975 -8.54319 -58.3177 -2.0211 8.3375 8.53432 25.4284 -1.27782 -26.4414 0.0 0.0 -0.0 0.0 -0.0 28.3453 21.7391 -11.27 -19.0973 -0.305287 -2.90119 41.4574 -13.0802 5.03387 -32.174 0.0 0.0 0.0 0.0 0.0 
1178.37484728 745.564 -1733.73330643 -13.154430051 34.508919448 10.2004628819 1.32182 0.0774444 0.00363342 1.32181 0.0770563 0.00855405 1.32183 0.0740842 0.0228555 1.32183 0.076764 0.0108684 0.823463 9.48494 -1.72117 1.12801 18.2355 -1.00161 -0.0 0.0 -0.0 1.05491 14.1982 3.38321 -16.8163 -19.7795 71.9378 0.693146 -18.9507 0.115688 36.5548 -0.182302 -4.58784 -4.62677 26.5522 -15.3893 -0.0 0.0 -0.0 8.86269 -2.75894 -17.2224 -3.01894 44.6665 -53.4973 1.62086 38.7589 -0.570173 -3.35311 0.130145 -0.408298 1.56165 -23.0863 -18.5579 0.0 0.0 0.0 43.2859 0.673704 -10.7518 -57.3006 -1.91566 8.22138 6.70195 20.7795 -0.987062 -26.1084 0.0 0.0 -0.0 0.0 -0.0 27.9281 26.196 -12.2883 -22.5013 -0.257549 -3.42124 41.7604 -13.0513 5.0594 -29.3913 0.0 0.0 0.0 0.0 0.0 
1167.63046493 745.564 -1725.32367463 -13.5560228711 36.8638508103 10.8887393173 1.32182 0.0774444 0.00363342 1.32181 0.0770563 0.00855405 1.32183 0.0740842 0.0228555 1.32183 0.076764 0.0108684 0.823463 9.48494 -1.72117 1.12801 18.2355 -1.00161 -0.0 0.0 -0.0 1.05491 14.1982 3.38321 -16.8163 -19.7795 71.9378 0.693146 -18.9507 0.115688 36.5548 -0.182302 -4.58784 -4.62677 26.5522 -15.3893 -0.0 0.0 -0.0 8.86269 -2.75894 -17.2224 -3.01894 44.6665 -53.4973 1.62086 38.7589 -0.570173 -3.35311 0.130145 -0.408298 1.56165 -23.0863 -18.5579 0.0 0.0 0.0 43.2859 0.673704 -10.7518 -57.3006 -1.91566 8.22138 6.70195 20.7795 -0.987062 -26.1084 0.0 0.0 -0.0 0.0 -0.0 27.9281 26.196 -12.2883 -22.5013 -0.257549 -3.42124 41.7604 -13.0513 5.0594 -29.3913 0.0 0.0 0.0 0.0 0.0 
1147.92461484 745.108 -1726.81556524 -12.2351267283 35.9832299503 9.85819647986 1.28894 0.115263 -0.0214464 1.28893 0.116394 -0.0140684 1.2889 0.116962 0.00808015 1.28892 0.11677 -0.0104933 -0.469247 9.94986 -2.63073 -0.1387 19.9269 -1.75088 -0.0 0.0 -0.0 1.85445 12.335 4.55051 -18.4437 -19.6543 73.553 0.586591 -16.2029 0.0835003 38.7606 -0.286373 -4.84997 -4.09216 25.8461 -12.7731 -0.0 0.0 -0.0 8.27411 -1.07871 -16.1121 -4.01717 47.2149 -50.7098 1.80331 41.7707 -0.688138 -2.55169 0.0968667 -0.311405 1.80479 -22.8461 -19.9947 0.0 0.0 0.0 44.28 3.14688 -12.0972 -56.0688 -1.79077 8.07829 8.76081 19.3955 -1.27578 -24.3126 0.0 0.0 -0.0 0.0 -0.0 25.1541 24.9376 -10.2213 -21.9989 -0.266536 -3.34468 41.09 -8.65219 4.96178 -31.2497 0.0 0.0 0.0 0.0 0.0 
1099.63658561 737.629 -1751.40505409 -10.6782767944 36.2695849916 7.77042948961 0.836863 0.0979061 0.0229797 0.836858 0.0962455 0.0291632 0.836908 0.0886688 0.0474502 0.836917 0.0950499 0.0328511 -0.896183 8.57906 -1.93867 -0.680137 16.9483 -1.08371 -0.0 0.0 -0.0 2.0256 16.43 5.09944 -19.5703 -19.3687 73.4633 0.488391 -13.6007 0.0582405 39.6331 -0.330315 -4.95253 -3.70027 28.6719 -8.80083 -0.0 0.0 -0.0 8.72537 -1.20681 -17.0109 -3.27798 45.9848 -47.3395 2.16712 47.0249 -0.942943 -1.1882 0.0433782 -0.145535 1.48873 -18.9125 -16.8451 0.0 0.0 0.0 44.9859 6.61644 -11.6885 -43.6086 -0.712157 6.49591 7.85204 15.1341 -1.13284 -24.1342 0.0 0.0 -0.0 0.0 -0.0 18.7076 30.434 -6.50963 -25.6018 -0.187247 -3.8918 41.1306 -9.15211 4.9683 -28.9088 0.0 0.0 0.0 0.0 0.0 
1092.40498226 737.629 -1744.08040336 -10.8928016569 37.7630328853 8.12672703536 0.836863 0.0979061 0.0229797 0.836858 0.0962455 0.0291632 0.836908 0.0886688 0.0474502 0.836917 0.0950499 0.0328511 -0.896183 8.57906 -1.93867 -0.680137 16.9483 -1.08371 -0.0 0.0 -0.0 2.0256 16.43 5.09944 -19.5703 -19.3687 73.4633 0.488391 -13.6007 0.0582405 39.6331 -0.330315 -4.95253 -3.70027 28.6719 -8.80083 -0.0 0.0 -0.0 8.72537 -1.20681 -17.0109 -3.27798 45.9848 -47.3395 2.16712 47.0249 -0.942943 -1.1882 0.0433782 -0.145535 1.48873 -18.9125 -16.8451 0.0 0.0 0.0 44.9859 6.61644 -11.6885 -43.6086 -0.712157 6.49591 7.85204 15.1341 -1.13284 -24.1342 0.0 0.0 -0.0 0.0 -0.0 18.7076 30.434 -6.50963 -25.6018 -0.187247 -3.8918 41.1306 -9.15211 4.9683 -28.9088 0.0 0.0 0.0 0.0 0.0 
